<svg xmlns="http://www.w3.org/2000/svg" xmlns:xlink="http://www.w3.org/1999/xlink" id="body_1" preserveAspectRatio="xMinYMin meet" viewBox="0 0 793 1123"><defs><clipPath id="1"><path d="M0 842L0 0L0 0L595 0L595 0L595 842L595 842L0 842z" /></clipPath><clipPath id="2"><path d="M0 0L595 0L595 0L595 768L595 768L0 768L0 768L0 0z" /></clipPath><clipPath id="3"><path d="M0 805L595 805L595 805L595 1573L595 1573L0 1573L0 1573L0 805z" /></clipPath><clipPath id="4"><path d="M0 37L595 37L595 37L595 805L595 805L0 805L0 805L0 37z" /></clipPath></defs><g transform="matrix(1.333333 0 0 1.333333 0 0)"><g><g clip-path="url(#1)"><g clip-path="url(#2)"><path transform="matrix(1 0 0 -1 0 842)" d="M0 842L595 842L595 842L595 805L595 805L0 805z" stroke="none" fill="#FFFFFF" fill-rule="winding" /></g><g clip-path="url(#3)"><path transform="matrix(1 0 0 -1 0 842)" d="M0 37L595 37L595 37L595 0L595 0L0 0z" stroke="none" fill="#FFFFFF" fill-rule="winding" /></g><g clip-path="url(#4)"><path transform="matrix(1 0 0 -1 0 842)" d="M0 805L595 805L595 805L595 130L595 130L0 130z" stroke="none" fill="#FFFFFF" fill-rule="winding" /><path transform="matrix(1 0 0 -1 0 842)" d="M35 723L560 723L560 723L560 722L560 722L35 722z" stroke="none" fill="#404040" fill-rule="winding" /><path transform="matrix(1 0 0 -1 0 842)" d="M35 543L560 543L560 543L560 542L560 542L35 542z" stroke="none" fill="#404040" fill-rule="winding" /><path transform="matrix(1 0 0 -1 0 842)" d="M35 296L560 296L560 296L560 295L560 295L35 295z" stroke="none" fill="#404040" fill-rule="winding" /><path transform="matrix(1 0 0 -1 0 842)" d="M35 194L560 194L560 194L560 193L560 193L35 193z" stroke="none" fill="#404040" fill-rule="winding" /><path transform="matrix(1 0 0 -1 0 842)" d="M39 681C 39 679.8954 38.10457 679 37 679C 35.89543 679 35 679.8954 35 681C 35 682.1046 35.89543 683 37 683C 38.10457 683 39 682.1046 39 681z" stroke="#000000" stroke-width="1" fill="#000000" fill-rule="evenodd" /><path transform="matrix(1 0 0 -1 0 842)" d="M39 666C 39 664.8954 38.10457 664 37 664C 35.89543 664 35 664.8954 35 666C 35 667.1046 35.89543 668 37 668C 38.10457 668 39 667.1046 39 666z" stroke="#000000" stroke-width="1" fill="#000000" fill-rule="evenodd" /><path transform="matrix(1 0 0 -1 0 842)" d="M39 650C 39 648.8954 38.10457 648 37 648C 35.89543 648 35 648.8954 35 650C 35 651.1046 35.89543 652 37 652C 38.10457 652 39 651.1046 39 650z" stroke="#000000" stroke-width="1" fill="#000000" fill-rule="evenodd" /><path transform="matrix(1 0 0 -1 0 842)" d="M39 603C 39 601.8954 38.10457 601 37 601C 35.89543 601 35 601.8954 35 603C 35 604.1046 35.89543 605 37 605C 38.10457 605 39 604.1046 39 603z" stroke="#000000" stroke-width="1" fill="#000000" fill-rule="evenodd" /><path transform="matrix(1 0 0 -1 0 842)" d="M39 588C 39 586.8954 38.10457 586 37 586C 35.89543 586 35 586.8954 35 588C 35 589.1046 35.89543 590 37 590C 38.10457 590 39 589.1046 39 588z" stroke="#000000" stroke-width="1" fill="#000000" fill-rule="evenodd" /><path transform="matrix(1 0 0 -1 0 842)" d="M39 572C 39 570.8954 38.10457 570 37 570C 35.89543 570 35 570.8954 35 572C 35 573.1046 35.89543 574 37 574C 38.10457 574 39 573.1046 39 572z" stroke="#000000" stroke-width="1" fill="#000000" fill-rule="evenodd" /><path transform="matrix(1 0 0 -1 0 842)" d="M39 501C 39 499.8954 38.10457 499 37 499C 35.89543 499 35 499.8954 35 501C 35 502.1046 35.89543 503 37 503C 38.10457 503 39 502.1046 39 501z" stroke="#000000" stroke-width="1" fill="#000000" fill-rule="evenodd" /><path transform="matrix(1 0 0 -1 0 842)" d="M499 495.5L557 495.5" stroke="#0000EE" stroke-width="1" stroke-linecap="square" fill="none" /><path transform="matrix(1 0 0 -1 0 842)" d="M50 483.5L99 483.5" stroke="#0000EE" stroke-width="1" stroke-linecap="square" fill="none" /><path transform="matrix(1 0 0 -1 0 842)" d="M39 474C 39 472.8954 38.10457 472 37 472C 35.89543 472 35 472.8954 35 474C 35 475.1046 35.89543 476 37 476C 38.10457 476 39 475.1046 39 474z" stroke="#000000" stroke-width="1" fill="#000000" fill-rule="evenodd" /><path transform="matrix(1 0 0 -1 0 842)" d="M409 468.5L504 468.5" stroke="#0000EE" stroke-width="1" stroke-linecap="square" fill="none" /><path transform="matrix(1 0 0 -1 0 842)" d="M517 468.5L551 468.5" stroke="#0000EE" stroke-width="1" stroke-linecap="square" fill="none" /><path transform="matrix(1 0 0 -1 0 842)" d="M50 456.5L119 456.5" stroke="#0000EE" stroke-width="1" stroke-linecap="square" fill="none" /><path transform="matrix(1 0 0 -1 0 842)" d="M39 446C 39 444.8954 38.10457 444 37 444C 35.89543 444 35 444.8954 35 446C 35 447.1046 35.89543 448 37 448C 38.10457 448 39 447.1046 39 446z" stroke="#000000" stroke-width="1" fill="#000000" fill-rule="evenodd" /><path transform="matrix(1 0 0 -1 0 842)" d="M39 431C 39 429.8954 38.10457 429 37 429C 35.89543 429 35 429.8954 35 431C 35 432.1046 35.89543 433 37 433C 38.10457 433 39 432.1046 39 431z" stroke="#000000" stroke-width="1" fill="#000000" fill-rule="evenodd" /><path transform="matrix(1 0 0 -1 0 842)" d="M39 384C 39 382.8954 38.10457 382 37 382C 35.89543 382 35 382.8954 35 384C 35 385.1046 35.89543 386 37 386C 38.10457 386 39 385.1046 39 384z" stroke="#000000" stroke-width="1" fill="#000000" fill-rule="evenodd" /><path transform="matrix(1 0 0 -1 0 842)" d="M39 368C 39 366.8954 38.10457 366 37 366C 35.89543 366 35 366.8954 35 368C 35 369.1046 35.89543 370 37 370C 38.10457 370 39 369.1046 39 368z" stroke="#000000" stroke-width="1" fill="#000000" fill-rule="evenodd" /><path transform="matrix(1 0 0 -1 0 842)" d="M39 341C 39 339.8954 38.10457 339 37 339C 35.89543 339 35 339.8954 35 341C 35 342.1046 35.89543 343 37 343C 38.10457 343 39 342.1046 39 341z" stroke="#000000" stroke-width="1" fill="#000000" fill-rule="evenodd" /><path transform="matrix(1 0 0 -1 0 842)" d="M39 325C 39 323.8954 38.10457 323 37 323C 35.89543 323 35 323.8954 35 325C 35 326.1046 35.89543 327 37 327C 38.10457 327 39 326.1046 39 325z" stroke="#000000" stroke-width="1" fill="#000000" fill-rule="evenodd" /><path transform="matrix(1 0 0 -1 0 842)" d="M50 319.5L183 319.5" stroke="#0000EE" stroke-width="1" stroke-linecap="square" fill="none" /><path transform="matrix(1 0 0 -1 0 842)" d="M39 254C 39 252.8954 38.10457 252 37 252C 35.89543 252 35 252.8954 35 254C 35 255.1046 35.89543 256 37 256C 38.10457 256 39 255.1046 39 254z" stroke="#000000" stroke-width="1" fill="#000000" fill-rule="evenodd" /><path transform="matrix(1 0 0 -1 0 842)" d="M39 238C 39 236.8954 38.10457 236 37 236C 35.89543 236 35 236.8954 35 238C 35 239.1046 35.89543 240 37 240C 38.10457 240 39 239.1046 39 238z" stroke="#000000" stroke-width="1" fill="#000000" fill-rule="evenodd" /><path transform="matrix(1 0 0 -1 0 842)" d="M39 223C 39 221.8954 38.10457 221 37 221C 35.89543 221 35 221.8954 35 223C 35 224.1046 35.89543 225 37 225C 38.10457 225 39 224.1046 39 223z" stroke="#000000" stroke-width="1" fill="#000000" fill-rule="evenodd" /><path transform="matrix(1 0 0 -1 0 842)" d="M39 183C 39 181.8954 38.10457 181 37 181C 35.89543 181 35 181.8954 35 183C 35 184.1046 35.89543 185 37 185C 38.10457 185 39 184.1046 39 183z" stroke="#000000" stroke-width="1" fill="#000000" fill-rule="evenodd" /><path transform="matrix(1 0 0 -1 0 842)" d="M39 168C 39 166.8954 38.10457 166 37 166C 35.89543 166 35 166.8954 35 168C 35 169.1046 35.89543 170 37 170C 38.10457 170 39 169.1046 39 168z" stroke="#000000" stroke-width="1" fill="#000000" fill-rule="evenodd" /><path transform="matrix(1 0 0 -1 0 842)" d="M39 152C 39 150.8954 38.10457 150 37 150C 35.89543 150 35 150.8954 35 152C 35 153.1046 35.89543 154 37 154C 38.10457 154 39 153.1046 39 152z" stroke="#000000" stroke-width="1" fill="#000000" fill-rule="evenodd" /></g></g></g></g></svg>