<svg xmlns="http://www.w3.org/2000/svg" xmlns:xlink="http://www.w3.org/1999/xlink" id="body_1" preserveAspectRatio="xMinYMin meet" viewBox="0 0 793 1123"><defs><clipPath id="1"><path d="M0 842L0 0L0 0L595 0L595 0L595 842L595 842L0 842z" /></clipPath><clipPath id="2"><path d="M30.6 30.59998L564.36 30.59998L564.36 30.59998L564.36 771.72L564.36 771.72L30.6 771.72L30.6 771.72L30.6 30.59998z" /></clipPath><clipPath id="3"><path d="M502.247 103.007L558.456 103.007L558.456 103.007L558.456 22.67999L558.456 22.67999L502.247 22.67999z" /></clipPath><clipPath id="4"><path d="M490.375 830.045L552.303 830.045L552.303 830.045L552.303 768.116L552.303 768.116L490.375 768.116z" /></clipPath></defs><g transform="matrix(1.333333 0 0 1.333333 0 0)"><g><g clip-path="url(#1)"><g clip-path="url(#2)"><path transform="matrix(1 0 0 -1 0 842)" d="M30.6 746.888L564.3599 746.888L564.3599 746.888L564.3599 745.3521L564.3599 745.3521L30.6 745.3521z" stroke="none" fill="#FFFFFF" fill-rule="winding" /><path transform="matrix(1 0 0 -1 0 842)" d="M30.6 576.392L564.3599 576.392L564.3599 576.392L564.3599 574.856L564.3599 574.856L30.6 574.856z" stroke="none" fill="#FFFFFF" fill-rule="winding" /><path transform="matrix(1 0 0 -1 0 842)" d="M30.6 746.888L32.136 746.888L32.136 746.888L32.136 574.856L32.136 574.856L30.6 574.856z" stroke="none" fill="#FFFFFF" fill-rule="winding" /><path transform="matrix(1 0 0 -1 0 842)" d="M562.8239 746.888L564.3599 746.888L564.3599 746.888L564.3599 574.856L564.3599 574.856L562.8239 574.856z" stroke="none" fill="#FFFFFF" fill-rule="winding" /><path transform="matrix(1 0 0 -1 0 842)" d="M32.136 730.76L562.8239 730.76L562.8239 730.76L562.8239 729.992L562.8239 729.992L32.136 729.992z" stroke="none" fill="#404040" fill-rule="winding" /><path transform="matrix(1 0 0 -1 0 842)" d="M30.6 571.016L564.3599 571.016L564.3599 571.016L564.3599 569.48L564.3599 569.48L30.6 569.48z" stroke="none" fill="#FFFFFF" fill-rule="winding" /><path transform="matrix(1 0 0 -1 0 842)" d="M30.6 280.712L564.3599 280.712L564.3599 280.712L564.3599 279.176L564.3599 279.176L30.6 279.176z" stroke="none" fill="#FFFFFF" fill-rule="winding" /><path transform="matrix(1 0 0 -1 0 842)" d="M30.6 571.016L32.136 571.016L32.136 571.016L32.136 279.176L32.136 279.176L30.6 279.176z" stroke="none" fill="#FFFFFF" fill-rule="winding" /><path transform="matrix(1 0 0 -1 0 842)" d="M562.8239 571.016L564.3599 571.016L564.3599 571.016L564.3599 279.176L564.3599 279.176L562.8239 279.176z" stroke="none" fill="#FFFFFF" fill-rule="winding" /><path transform="matrix(1 0 0 -1 0 842)" d="M32.136 554.8881L562.8239 554.8881L562.8239 554.8881L562.8239 554.12L562.8239 554.12L32.136 554.12z" stroke="none" fill="#404040" fill-rule="winding" /><path transform="matrix(1 0 0 -1 0 842)" d="M30.6 275.336L564.3599 275.336L564.3599 275.336L564.3599 273.8L564.3599 273.8L30.6 273.8z" stroke="none" fill="#FFFFFF" fill-rule="winding" /><path transform="matrix(1 0 0 -1 0 842)" d="M30.6 180.104L564.3599 180.104L564.3599 180.104L564.3599 178.568L564.3599 178.568L30.6 178.568z" stroke="none" fill="#FFFFFF" fill-rule="winding" /><path transform="matrix(1 0 0 -1 0 842)" d="M30.6 275.336L32.136 275.336L32.136 275.336L32.136 178.568L32.136 178.568L30.6 178.568z" stroke="none" fill="#FFFFFF" fill-rule="winding" /><path transform="matrix(1 0 0 -1 0 842)" d="M562.8239 275.336L564.3599 275.336L564.3599 275.336L564.3599 178.568L564.3599 178.568L562.8239 178.568z" stroke="none" fill="#FFFFFF" fill-rule="winding" /><path transform="matrix(1 0 0 -1 0 842)" d="M32.136 259.208L562.8239 259.208L562.8239 259.208L562.8239 258.44L562.8239 258.44L32.136 258.44z" stroke="none" fill="#404040" fill-rule="winding" /><path transform="matrix(1 0 0 -1 0 842)" d="M30.6 174.728L564.3599 174.728L564.3599 174.728L564.3599 173.192L564.3599 173.192L30.6 173.192z" stroke="none" fill="#FFFFFF" fill-rule="winding" /><path transform="matrix(1 0 0 -1 0 842)" d="M30.6 174.728L32.136 174.728L32.136 174.728L32.136 71.81604L32.136 71.81604L30.6 71.81604z" stroke="none" fill="#FFFFFF" fill-rule="winding" /><path transform="matrix(1 0 0 -1 0 842)" d="M562.8239 174.728L564.3599 174.728L564.3599 174.728L564.3599 71.81604L564.3599 71.81604L562.8239 71.81604z" stroke="none" fill="#FFFFFF" fill-rule="winding" /><path transform="matrix(1 0 0 -1 0 842)" d="M32.136 158.6L562.8239 158.6L562.8239 158.6L562.8239 157.832L562.8239 157.832L32.136 157.832z" stroke="none" fill="#404040" fill-rule="winding" /><path transform="matrix(1 0 0 -1 0 842)" d="M38.28 689.672C 38.28 688.6116 37.42039 687.752 36.36 687.752C 35.29961 687.752 34.44 688.6116 34.44 689.672C 34.44 690.7324 35.29961 691.592 36.36 691.592C 37.42039 691.592 38.28 690.7324 38.28 689.672z" stroke="#000000" stroke-width="0.7679999" fill="#000000" fill-rule="evenodd" /><path transform="matrix(1 0 0 -1 0 842)" d="M38.28 674.312C 38.28 673.2516 37.42039 672.392 36.36 672.392C 35.29961 672.392 34.44 673.2516 34.44 674.312C 34.44 675.3724 35.29961 676.2321 36.36 676.2321C 37.42039 676.2321 38.28 675.3724 38.28 674.312z" stroke="#000000" stroke-width="0.7679999" fill="#000000" fill-rule="evenodd" /><path transform="matrix(1 0 0 -1 0 842)" d="M38.28 658.952C 38.28 657.8917 37.42039 657.032 36.36 657.032C 35.29961 657.032 34.44 657.8917 34.44 658.952C 34.44 660.0124 35.29961 660.872 36.36 660.872C 37.42039 660.872 38.28 660.0124 38.28 658.952z" stroke="#000000" stroke-width="0.7679999" fill="#000000" fill-rule="evenodd" /><path transform="matrix(1 0 0 -1 0 842)" d="M38.28 614.408C 38.28 613.3477 37.42039 612.488 36.36 612.488C 35.29961 612.488 34.44 613.3477 34.44 614.408C 34.44 615.4684 35.29961 616.328 36.36 616.328C 37.42039 616.328 38.28 615.4684 38.28 614.408z" stroke="#000000" stroke-width="0.7679999" fill="#000000" fill-rule="evenodd" /><path transform="matrix(1 0 0 -1 0 842)" d="M38.28 599.048C 38.28 597.9877 37.42039 597.1281 36.36 597.1281C 35.29961 597.1281 34.44 597.9877 34.44 599.048C 34.44 600.1084 35.29961 600.968 36.36 600.968C 37.42039 600.968 38.28 600.1084 38.28 599.048z" stroke="#000000" stroke-width="0.7679999" fill="#000000" fill-rule="evenodd" /><path transform="matrix(1 0 0 -1 0 842)" d="M38.28 583.688C 38.28 582.6276 37.42039 581.768 36.36 581.768C 35.29961 581.768 34.44 582.6276 34.44 583.688C 34.44 584.7484 35.29961 585.608 36.36 585.608C 37.42039 585.608 38.28 584.7484 38.28 583.688z" stroke="#000000" stroke-width="0.7679999" fill="#000000" fill-rule="evenodd" /><path transform="matrix(1 0 0 -1 0 842)" d="M38.28 513.8C 38.28 512.7396 37.42039 511.88 36.36 511.88C 35.29961 511.88 34.44 512.7396 34.44 513.8C 34.44 514.8604 35.29961 515.72 36.36 515.72C 37.42039 515.72 38.28 514.8604 38.28 513.8z" stroke="#000000" stroke-width="0.7679999" fill="#000000" fill-rule="evenodd" /><path transform="matrix(1 0 0 -1 0 842)" d="M38.28 486.152C 38.28 485.0916 37.42039 484.232 36.36 484.232C 35.29961 484.232 34.44 485.0916 34.44 486.152C 34.44 487.2124 35.29961 488.072 36.36 488.072C 37.42039 488.072 38.28 487.2124 38.28 486.152z" stroke="#000000" stroke-width="0.7679999" fill="#000000" fill-rule="evenodd" /><path transform="matrix(1 0 0 -1 0 842)" d="M38.28 458.504C 38.28 457.4436 37.42039 456.584 36.36 456.584C 35.29961 456.584 34.44 457.4436 34.44 458.504C 34.44 459.5644 35.29961 460.424 36.36 460.424C 37.42039 460.424 38.28 459.5644 38.28 458.504z" stroke="#000000" stroke-width="0.7679999" fill="#000000" fill-rule="evenodd" /><path transform="matrix(1 0 0 -1 0 842)" d="M38.28 443.144C 38.28 442.0836 37.42039 441.224 36.36 441.224C 35.29961 441.224 34.44 442.0836 34.44 443.144C 34.44 444.2044 35.29961 445.064 36.36 445.064C 37.42039 445.064 38.28 444.2044 38.28 443.144z" stroke="#000000" stroke-width="0.7679999" fill="#000000" fill-rule="evenodd" /><path transform="matrix(1 0 0 -1 0 842)" d="M38.28 398.6C 38.28 397.5396 37.42039 396.68 36.36 396.68C 35.29961 396.68 34.44 397.5396 34.44 398.6C 34.44 399.6604 35.29961 400.52 36.36 400.52C 37.42039 400.52 38.28 399.6604 38.28 398.6z" stroke="#000000" stroke-width="0.7679999" fill="#000000" fill-rule="evenodd" /><path transform="matrix(1 0 0 -1 0 842)" d="M38.28 370.952C 38.28 369.8916 37.42039 369.032 36.36 369.032C 35.29961 369.032 34.44 369.8916 34.44 370.952C 34.44 372.0124 35.29961 372.872 36.36 372.872C 37.42039 372.872 38.28 372.0124 38.28 370.952z" stroke="#000000" stroke-width="0.7679999" fill="#000000" fill-rule="evenodd" /><path transform="matrix(1 0 0 -1 0 842)" d="M38.28 343.304C 38.28 342.2436 37.42039 341.384 36.36 341.384C 35.29961 341.384 34.44 342.2436 34.44 343.304C 34.44 344.3644 35.29961 345.224 36.36 345.224C 37.42039 345.224 38.28 344.3644 38.28 343.304z" stroke="#000000" stroke-width="0.7679999" fill="#000000" fill-rule="evenodd" /><path transform="matrix(1 0 0 -1 0 842)" d="M38.28 315.656C 38.28 314.5956 37.42039 313.736 36.36 313.736C 35.29961 313.736 34.44 314.5956 34.44 315.656C 34.44 316.7164 35.29961 317.576 36.36 317.576C 37.42039 317.576 38.28 316.7164 38.28 315.656z" stroke="#000000" stroke-width="0.7679999" fill="#000000" fill-rule="evenodd" /><path transform="matrix(1 0 0 -1 0 842)" d="M38.28 288.008C 38.28 286.9476 37.42039 286.088 36.36 286.088C 35.29961 286.088 34.44 286.9476 34.44 288.008C 34.44 289.0684 35.29961 289.928 36.36 289.928C 37.42039 289.928 38.28 289.0684 38.28 288.008z" stroke="#000000" stroke-width="0.7679999" fill="#000000" fill-rule="evenodd" /><path transform="matrix(1 0 0 -1 0 842)" d="M38.28 218.12C 38.28 217.0596 37.42039 216.2 36.36 216.2C 35.29961 216.2 34.44 217.0596 34.44 218.12C 34.44 219.1804 35.29961 220.04 36.36 220.04C 37.42039 220.04 38.28 219.1804 38.28 218.12z" stroke="#000000" stroke-width="0.7679999" fill="#000000" fill-rule="evenodd" /><path transform="matrix(1 0 0 -1 0 842)" d="M38.28 202.76C 38.28 201.6996 37.42039 200.84 36.36 200.84C 35.29961 200.84 34.44 201.6996 34.44 202.76C 34.44 203.8204 35.29961 204.68 36.36 204.68C 37.42039 204.68 38.28 203.8204 38.28 202.76z" stroke="#000000" stroke-width="0.7679999" fill="#000000" fill-rule="evenodd" /><path transform="matrix(1 0 0 -1 0 842)" d="M38.28 187.4C 38.28 186.3396 37.42039 185.48 36.36 185.48C 35.29961 185.48 34.44 186.3396 34.44 187.4C 34.44 188.4604 35.29961 189.32 36.36 189.32C 37.42039 189.32 38.28 188.4604 38.28 187.4z" stroke="#000000" stroke-width="0.7679999" fill="#000000" fill-rule="evenodd" /><path transform="matrix(1 0 0 -1 0 842)" d="M38.28 146.696C 38.28 145.6356 37.42039 144.776 36.36 144.776C 35.29961 144.776 34.44 145.6356 34.44 146.696C 34.44 147.7564 35.29961 148.616 36.36 148.616C 37.42039 148.616 38.28 147.7564 38.28 146.696z" stroke="#000000" stroke-width="0.7679999" fill="#000000" fill-rule="evenodd" /><path transform="matrix(1 0 0 -1 0 842)" d="M38.28 131.336C 38.28 130.2756 37.42039 129.416 36.36 129.416C 35.29961 129.416 34.44 130.2756 34.44 131.336C 34.44 132.3964 35.29961 133.256 36.36 133.256C 37.42039 133.256 38.28 132.3964 38.28 131.336z" stroke="#000000" stroke-width="0.7679999" fill="#000000" fill-rule="evenodd" /><path transform="matrix(1 0 0 -1 0 842)" d="M38.28 115.976C 38.28 114.9156 37.42039 114.056 36.36 114.056C 35.29961 114.056 34.44 114.9156 34.44 115.976C 34.44 117.0364 35.29961 117.896 36.36 117.896C 37.42039 117.896 38.28 117.0364 38.28 115.976z" stroke="#000000" stroke-width="0.7679999" fill="#000000" fill-rule="evenodd" /><path transform="matrix(1 0 0 -1 0 842)" d="M38.28 88.328C 38.28 87.26764 37.42039 86.40802 36.36 86.40802C 35.29961 86.40802 34.44 87.26764 34.44 88.328C 34.44 89.38843 35.29961 90.24805 36.36 90.24805C 37.42039 90.24805 38.28 89.38843 38.28 88.328z" stroke="#000000" stroke-width="0.7679999" fill="#000000" fill-rule="evenodd" /></g><g clip-path="url(#3)"><g transform="matrix(0.02538798 0 0 0.02538781 502.247 22.67999)"><g transform="matrix(1 0 0 1 0 0)"><image x="0" y="0" xlink:href="img_01.png" width="2214" height="3164" /></g></g></g><g clip-path="url(#4)"><g transform="matrix(0.122873 0 0 0.122875 490.375 768.116)"><g transform="matrix(1 0 0 1 0 0)"><image x="0" y="0" xlink:href="img_02.png" width="504" height="504" /></g></g></g></g></g></g></svg>